<?xml version="1.0" encoding="utf-8"?>
<svg xmlns="http://www.w3.org/2000/svg" xmlns:xlink="http://www.w3.org/1999/xlink" version="1.1" style="width:0;height:0;position:absolute;overflow:hidden;">
  <defs>
<symbol viewBox="0 0 1792 1408" id="si-awesome-envelope"><path d="M1792 454v794q0 66-47 113t-113 47H160q-66 0-113-47T0 1248V454q44 49 101 87 362 246 497 345 57 42 92.5 65.5t94.5 48 110 24.5h2q51 0 110-24.5t94.5-48T1194 886q170-123 498-345 57-39 100-87zm0-294q0 79-49 151t-122 123q-376 261-468 325-10 7-42.5 30.5t-54 38-52 32.5-57.5 27-50 9h-2q-23 0-50-9t-57.5-27-52-32.5-54-38T639 759q-91-64-262-182.5T172 434q-62-42-117-115.5T0 182q0-78 41.5-130T160 0h1472q65 0 112.5 47t47.5 113z"/></symbol>
<symbol viewBox="0 0 1536 1536" id="si-awesome-facebook-official"><path d="M1451 0q35 0 60 25t25 60v1366q0 35-25 60t-60 25h-391V941h199l30-232h-229V561q0-56 23.5-84t91.5-28l122-1V241q-63-9-178-9-136 0-217.5 80T820 538v171H620v232h200v595H85q-35 0-60-25t-25-60V85q0-35 25-60T85 0h1366z"/></symbol>
<symbol viewBox="0 0 1536 1536" id="si-awesome-instagram"><path d="M1024 768q0-106-75-181t-181-75-181 75-75 181 75 181 181 75 181-75 75-181zm138 0q0 164-115 279t-279 115-279-115-115-279 115-279 279-115 279 115 115 279zm108-410q0 38-27 65t-65 27-65-27-27-65 27-65 65-27 65 27 27 65zM768 138q-7 0-76.5-.5t-105.5 0-96.5 3-103 10T315 169q-50 20-88 58t-58 88q-11 29-18.5 71.5t-10 103-3 96.5 0 105.5.5 76.5-.5 76.5 0 105.5 3 96.5 10 103T169 1221q20 50 58 88t88 58q29 11 71.5 18.5t103 10 96.5 3 105.5 0 76.5-.5 76.5.5 105.5 0 96.5-3 103-10 71.5-18.5q50-20 88-58t58-88q11-29 18.5-71.5t10-103 3-96.5 0-105.5-.5-76.5.5-76.5 0-105.5-3-96.5-10-103T1367 315q-20-50-58-88t-88-58q-29-11-71.5-18.5t-103-10-96.5-3-105.5 0-76.5.5zm768 630q0 229-5 317-10 208-124 322t-322 124q-88 5-317 5t-317-5q-208-10-322-124T5 1085q-5-88-5-317t5-317q10-208 124-322T451 5q88-5 317-5t317 5q208 10 322 124t124 322q5 88 5 317z"/></symbol>
<symbol viewBox="0 0 1408 1408" id="si-awesome-phone"><path d="M1408 1112q0 27-10 70.5t-21 68.5q-21 50-122 106-94 51-186 51-27 0-52.5-3.5T959 1392t-47.5-14.5T856 1357t-49-18q-98-35-175-83-128-79-264.5-215.5T152 776q-48-77-83-175-3-9-18-49t-20.5-55.5T16 449 3.5 391.5 0 339q0-92 51-186Q107 52 157 31q25-11 68.5-21T296 0q14 0 21 3 18 6 53 76 11 19 30 54t35 63.5 31 53.5q3 4 17.5 25t21.5 35.5 7 28.5q0 20-28.5 50t-62 55-62 53-28.5 46q0 9 5 22.5t8.5 20.5 14 24 11.5 19q76 137 174 235t235 174q2 1 19 11.5t24 14 20.5 8.5 22.5 5q18 0 46-28.5t53-62 55-62 50-28.5q14 0 28.5 7t35.5 21.5 25 17.5q25 15 53.5 31t63.5 35 54 30q70 35 76 53 3 7 3 21z"/></symbol>
<symbol viewBox="0 0 1792 1280" id="si-awesome-youtube-play"><path d="M1280 640q0-37-30-54L738 266q-31-20-65-2-33 18-33 56v640q0 38 33 56 16 8 31 8 20 0 34-10l512-320q30-17 30-54zm512 0q0 96-1 150t-8.5 136.5T1760 1074q-16 73-69 123t-124 58q-222 25-671 25t-671-25q-71-8-124.5-58T31 1074q-14-65-21.5-147.5T1 790 0 640t1-150 8.5-136.5T32 206q16-73 69-123t124-58Q447 0 896 0t671 25q71 8 124.5 58t69.5 123q14 65 21.5 147.5T1791 490t1 150z"/></symbol>
  </defs>
</svg>
